# xmcd
#
# Track frame offsets: 
#        150
#        12227
#        21987
#        31357
#        42298
#        53955
#        64797
#        77442
#        87522
#        96663
#        105525
#        114387
#        123426
#        134573
#        143866
#        157527
#
# Disc length: 2268 seconds
#
# Revision: 3
# Processed by: cddbd v1.5.2PL0 Copyright (c) Steve Scherf et al.
# Submitted via: ExactAudioCopy v0.95b4
#
DISCID=d208da10
DTITLE=Brenda Lee - Brenda's Best
DYEAR=1987
DGENRE=Country
TTITLE0=I'm Sorry
TTITLE1=Jambalaya
TTITLE2=Dynamite
TTITLE3=Sweet Nothin's
TTITLE4=Let's Jump The Broomstick
TTITLE5=Bill Bailey, Won't You Please Come Home
TTITLE6=Emotions
TTITLE7=Baby Face
TTITLE8=Ring-A-My-Hone
TTITLE9=Love You Till I Die
TTITLE10=Just Because
TTITLE11=Hummin'  The Blues Over You
TTITLE12=That's All You Gotta Do
TTITLE13=Wee Wee Willies
TTITLE14=Weep No More My Baby
TTITLE15=Just Let Me Dream
EXTD=
EXTT0=
EXTT1=
EXTT2=
EXTT3=
EXTT4=
EXTT5=
EXTT6=
EXTT7=
EXTT8=
EXTT9=
EXTT10=
EXTT11=
EXTT12=
EXTT13=
EXTT14=
EXTT15=
PLAYORDER=
